<svg id="Layer_1" data-name="Layer 1" xmlns="http://www.w3.org/2000/svg" viewBox="0 0 411.15 346.41"><defs><style>.cls-1{fill:#85c54b;}</style></defs><title>Asset2</title><path class="cls-1" d="M313.71,423.12c-31.67-.65-63.06-5.17-94.45-8.74-7-.79-13.74-3.5-20.49-5.59-33.08-10.24-31.08-43.21-13.19-58.78,19.79-17.22,44.18-27,69.24-35.95,27.11-9.64,32-28.82,13.76-49.61-22.84-26.08-35.69-55.24-29.58-89.1,5.78-32.07,35.13-54.31,72.83-54.88,39.22-.59,68.92,19.74,75.81,52.33,7.46,35.3-5.43,65.91-29.4,93.49-15.23,17.52-9,37.38,13.91,46.79a515.6,515.6,0,0,1,59.2,28.4c13.52,7.7,23.9,18.61,24.22,34.7.28,14.77-6.48,26-21.82,30.51a405.78,405.78,0,0,1-105.09,16.44Q321.18,423.28,313.71,423.12Z" transform="translate(-44.42 -76.8)"/><path class="cls-1" d="M238.86,285.52c-10,4.24-21.1,8.71-32,13.6-25,11.28-47.1,25.47-61.7,47.39-1.51,2.26-6.18,4.7-8.8,4.28-23.06-3.7-46.85-5.89-68.73-12.72C41.51,329.9,37,304.5,56.25,286.37c19.7-18.58,45.17-28.75,71.68-37.27,19.43-6.25,23.28-18.88,10.51-33.49C115,188.77,105.11,158.64,112,125c5.06-24.76,26-43.15,52.63-47.16,30-4.53,57.44,5.86,71.55,27.09,2.43,3.66,5,6.81.25,11.14-38.07,35-42.64,75.93-24.9,119.63C218.34,252.5,229.13,268.05,238.86,285.52Z" transform="translate(-44.42 -76.8)"/></svg>