<?xml version="1.0" encoding="utf-8"?>
<!-- Generator: Adobe Illustrator 22.0.1, SVG Export Plug-In . SVG Version: 6.00 Build 0)  -->
<svg version="1.1" id="Layer_1" xmlns="http://www.w3.org/2000/svg" xmlns:xlink="http://www.w3.org/1999/xlink" x="0px" y="0px"
	 viewBox="0 0 500 500" style="enable-background:new 0 0 500 500;" xml:space="preserve">
<style type="text/css">
	.st0{fill:#211F5E;}
</style>
<g>
	<path class="st0" d="M124.2,368.4c-14.7,0-26.7-11.9-26.7-26.7V149c0-14.7,11.9-26.7,26.7-26.7h1.5c14.7,0,26.7,11.9,26.7,26.7
		v192.7c0,14.7-11.9,26.7-26.7,26.7"/>
	<path class="st0" d="M109.4,320.9c0,11.5-9.4,20.9-20.9,20.9h-1.2c-11.5,0-20.9-9.4-20.9-20.9v-151c0-11.6,9.4-20.9,20.9-20.9h1.2
		c11.5,0,20.9,9.4,20.9,20.9V320.9z"/>
	<path class="st0" d="M474.1,245.4c0,13.5-10.9,24.5-24.5,24.5H70.1c-13.5,0-24.5-11-24.5-24.5c0-13.5,11-24.5,24.5-24.5h379.5
		C463.1,220.9,474.1,231.8,474.1,245.4"/>
	<path class="st0" d="M401.4,368.4c-14.7,0-26.7-11.9-26.7-26.7V149c0-14.7,11.9-26.7,26.7-26.7h1.5c14.7,0,26.7,11.9,26.7,26.7
		v192.7c0,14.7-11.9,26.7-26.7,26.7"/>
	<path class="st0" d="M417.7,169.8c0-11.5,9.4-20.9,20.9-20.9h1.2c11.5,0,20.9,9.4,20.9,20.9v151c0,11.6-9.4,20.9-20.9,20.9h-1.2
		c-11.6,0-20.9-9.4-20.9-20.9V169.8z"/>
</g>
</svg>
