<svg id="Layer_1" data-name="Layer 1" xmlns="http://www.w3.org/2000/svg" viewBox="0 0 222.19 307.92"><defs><style>.cls-1{fill:#85c549;}</style></defs><title>Asset3</title><path class="cls-1" d="M361.1,292.86A111.1,111.1,0,1,1,250,181.76a111.1,111.1,0,0,1,111.1,111.1" transform="translate(-138.9 -96.04)"/><path class="cls-1" d="M261.71,192.52a5.8,5.8,0,0,1-11.56.94c-2.24-26.65-1-49.66,6.17-66.6,7.62-18.08,21.5-29.27,44.14-30.81a5.8,5.8,0,0,1,.75,11.58c-17.56,1.19-28.3,9.81-34.17,23.74-6.34,15.07-7.42,36.27-5.33,61.15" transform="translate(-138.9 -96.04)"/><path class="cls-1" d="M153,109.85h0v-1.2a7,7,0,0,1,5.6-6.77l1.17-.24a55.52,55.52,0,0,1,9.87-1,55.52,55.52,0,0,0-9.87,1l-1.17.24a7,7,0,0,0-5.6,6.77v1.2h0m74.46,61.63Z" transform="translate(-138.9 -96.04)"/><path class="cls-1" d="M176,122.66a7,7,0,0,0-4.8,7.37l.13,1.19a54.3,54.3,0,0,0,2.18,10.45c4.27,13.68,13.67,25.81,26.47,34.15,16.09,10.47,35.67,13.53,52.38,8.17l1.14-.36a7,7,0,0,0,4.8-7.36l-.13-1.2A54.15,54.15,0,0,0,256,164.62h0c-4.27-13.68-13.67-25.81-26.47-34.15-16.09-10.48-35.67-13.53-52.38-8.17Z" transform="translate(-138.9 -96.04)"/><path class="cls-1" d="M256.78,167.58a53.69,53.69,0,0,1,1.34,7.43h0a.13.13,0,0,1,0,.06l.13,1.2a7,7,0,0,1-4.8,7.36l-1.14.36-.39.13c-16.63,5.18-36,2.09-52-8.3-12.8-8.34-22.2-20.47-26.47-34.15-.08-.24-.15-.48-.22-.73a53.52,53.52,0,0,1-2-9.72l-.13-1.19a7,7,0,0,1,4.8-7.37l1.14-.36h0c1-.31,2-.59,2.95-.84a4.26,4.26,0,0,0,0,.71l.11,1.06a49,49,0,0,0,1.94,9.34A57.12,57.12,0,0,0,205.78,163c14.35,9.35,31.83,12.08,46.75,7.3l1-.33a6.12,6.12,0,0,0,3.23-2.42" transform="translate(-138.9 -96.04)"/></svg>