<svg id="Layer_1" data-name="Layer 1" xmlns="http://www.w3.org/2000/svg" viewBox="0 0 428.43 246.09"><defs><style>.cls-1{fill:#85c549;}</style></defs><title>Asset 1</title><path class="cls-1" d="M124.21,368.4a26.69,26.69,0,0,1-26.68-26.69V149a26.69,26.69,0,0,1,26.68-26.68h1.49A26.69,26.69,0,0,1,152.38,149V341.71A26.69,26.69,0,0,1,125.7,368.4" transform="translate(-45.65 -122.31)"/><path class="cls-1" d="M41.67,26.6h1.16A20.91,20.91,0,0,1,63.74,47.52v151a20.92,20.92,0,0,1-20.92,20.92H41.67a20.91,20.91,0,0,1-20.91-20.91v-151A20.92,20.92,0,0,1,41.67,26.6Z"/><path class="cls-1" d="M474.07,245.35a24.46,24.46,0,0,1-24.46,24.46H70.11a24.46,24.46,0,1,1,0-48.92h379.5a24.46,24.46,0,0,1,24.46,24.46" transform="translate(-45.65 -122.31)"/><path class="cls-1" d="M401.44,368.4a26.69,26.69,0,0,1-26.69-26.69V149a26.69,26.69,0,0,1,26.69-26.68h1.48A26.68,26.68,0,0,1,429.6,149V341.71a26.68,26.68,0,0,1-26.68,26.69" transform="translate(-45.65 -122.31)"/><path class="cls-1" d="M393,26.6h1.16a20.91,20.91,0,0,1,20.91,20.91v151a20.92,20.92,0,0,1-20.92,20.92H393a20.91,20.91,0,0,1-20.91-20.91v-151A20.92,20.92,0,0,1,393,26.6Z"/></svg>