<?xml version="1.0" encoding="utf-8"?>
<!-- Generator: Adobe Illustrator 22.0.1, SVG Export Plug-In . SVG Version: 6.00 Build 0)  -->
<svg version="1.1" id="Layer_1" xmlns="http://www.w3.org/2000/svg" xmlns:xlink="http://www.w3.org/1999/xlink" x="0px" y="0px"
	 viewBox="0 0 500 500" style="enable-background:new 0 0 500 500;" xml:space="preserve">
<style type="text/css">
	.st0{fill:#003040;}
</style>
<g>
	<path class="st0" d="M313.7,423.1c-31.7-0.7-63.1-5.2-94.4-8.7c-7-0.8-13.7-3.5-20.5-5.6c-33.1-10.2-31.1-43.2-13.2-58.8
		c19.8-17.2,44.2-27,69.2-36c27.1-9.6,32-28.8,13.8-49.6c-22.8-26.1-35.7-55.2-29.6-89.1c5.8-32.1,35.1-54.3,72.8-54.9
		c39.2-0.6,68.9,19.7,75.8,52.3c7.5,35.3-5.4,65.9-29.4,93.5c-15.2,17.5-9,37.4,13.9,46.8c20.3,8.4,40.4,17.7,59.2,28.4
		c13.5,7.7,23.9,18.6,24.2,34.7c0.3,14.8-6.5,26-21.8,30.5c-33.9,9.9-69.4,15.7-105.1,16.4C323.7,423.2,318.7,423.2,313.7,423.1z"/>
	<path class="st0" d="M238.9,285.5c-10,4.2-21.1,8.7-32,13.6c-25,11.3-47.1,25.5-61.7,47.4c-1.5,2.3-6.2,4.7-8.8,4.3
		c-23.1-3.7-46.8-5.9-68.7-12.7c-26.2-8.2-30.6-33.6-11.4-51.7c19.7-18.6,45.2-28.8,71.7-37.3c19.4-6.2,23.3-18.9,10.5-33.5
		c-23.5-26.8-33.3-57-26.5-90.6c5.1-24.8,26-43.1,52.6-47.2c30-4.5,57.4,5.9,71.6,27.1c2.4,3.7,5,6.8,0.2,11.1
		c-38.1,35-42.6,75.9-24.9,119.6C218.3,252.5,229.1,268.1,238.9,285.5z"/>
</g>
</svg>
